<svg width="80" height="18" viewBox="0 0 80 18" fill="none" xmlns="http://www.w3.org/2000/svg">
<path d="M25.2001 2.94795C24.9121 1.86795 24.0601 1.01595 22.9761 0.723951C21.0161 0.199951 13.1521 0.199951 13.1521 0.199951C13.1521 0.199951 5.29208 0.199951 3.32808 0.723951C2.24808 1.01195 1.39608 1.86395 1.10408 2.94795C0.580078 4.90795 0.580078 8.99995 0.580078 8.99995C0.580078 8.99995 0.580078 13.092 1.10408 15.052C1.39208 16.132 2.24408 16.9839 3.32808 17.2759C5.29208 17.7999 13.1521 17.7999 13.1521 17.7999C13.1521 17.7999 21.0161 17.7999 22.9761 17.2759C24.0561 16.9879 24.9081 16.136 25.2001 15.052C25.7241 13.092 25.7241 8.99995 25.7241 8.99995C25.7241 8.99995 25.7241 4.90795 25.2001 2.94795Z" fill="#FF0000"/>
<path d="M10.6401 12.772L17.1721 9.00003L10.6401 5.22803V12.772Z" fill="white"/>
<path d="M37.0757 16.2119C36.5797 15.8759 36.2237 15.3559 36.0157 14.6479C35.8077 13.9399 35.6997 12.9999 35.6997 11.8239V10.2239C35.6997 9.0359 35.8197 8.0839 36.0597 7.3639C36.2997 6.6439 36.6757 6.1199 37.1837 5.7919C37.6917 5.4639 38.3597 5.2959 39.1877 5.2959C40.0037 5.2959 40.6557 5.4639 41.1477 5.7999C41.6397 6.1359 41.9997 6.6599 42.2277 7.3719C42.4557 8.0839 42.5677 9.0359 42.5677 10.2199V11.8199C42.5677 12.9959 42.4557 13.9399 42.2357 14.6519C42.0157 15.3639 41.6557 15.8879 41.1557 16.2159C40.6597 16.5439 39.9837 16.7119 39.1317 16.7119C38.2597 16.7159 37.5717 16.5479 37.0757 16.2119ZM39.8637 14.4839C39.9997 14.1239 40.0717 13.5359 40.0717 12.7239V9.2879C40.0717 8.4959 40.0037 7.9199 39.8637 7.5519C39.7277 7.1879 39.4837 7.0039 39.1357 7.0039C38.7997 7.0039 38.5637 7.1879 38.4237 7.5519C38.2877 7.9159 38.2157 8.4959 38.2157 9.2879V12.7239C38.2157 13.5399 38.2797 14.1279 38.4117 14.4839C38.5437 14.8439 38.7837 15.0239 39.1317 15.0239C39.4837 15.0239 39.7237 14.8439 39.8637 14.4839Z" fill="#282828"/>
<path d="M75.2639 11.852V12.408C75.2639 13.116 75.2839 13.644 75.3279 14C75.3679 14.352 75.4559 14.612 75.5879 14.772C75.7199 14.932 75.9239 15.016 76.1999 15.016C76.5719 15.016 76.8279 14.872 76.9639 14.584C77.0999 14.296 77.1759 13.816 77.1879 13.144L79.3279 13.268C79.3399 13.364 79.3439 13.496 79.3439 13.664C79.3439 14.684 79.0639 15.444 78.5079 15.948C77.9519 16.452 77.1639 16.704 76.1439 16.704C74.9199 16.704 74.0639 16.32 73.5719 15.552C73.0799 14.784 72.8359 13.6 72.8359 11.992V10.068C72.8359 8.41195 73.0919 7.20796 73.5999 6.44396C74.1079 5.68396 74.9799 5.30396 76.2159 5.30396C77.0679 5.30396 77.7199 5.45996 78.1759 5.77196C78.6319 6.08396 78.9519 6.56795 79.1399 7.22795C79.3239 7.88795 79.4199 8.79996 79.4199 9.95996V11.848H75.2639V11.852ZM75.5799 7.21196C75.4559 7.36796 75.3719 7.62396 75.3279 7.97596C75.2839 8.32796 75.2639 8.86795 75.2639 9.58395V10.376H77.0799V9.58395C77.0799 8.87595 77.0559 8.33996 77.0079 7.97596C76.9599 7.61196 76.8719 7.35195 76.7479 7.20395C76.6239 7.05595 76.4279 6.97996 76.1639 6.97996C75.8999 6.97596 75.7039 7.05596 75.5799 7.21196Z" fill="#282828"/>
<path d="M31.0359 11.6438L28.2119 1.44785H30.6759L31.6639 6.06785C31.9159 7.20785 32.0999 8.17585 32.2199 8.97985H32.2919C32.3759 8.40385 32.5599 7.43985 32.8479 6.08385L33.8719 1.44385H36.3359L33.4799 11.6438V16.5358H31.0359V11.6438Z" fill="#282828"/>
<path d="M50.5799 5.51196V16.532H48.6399L48.4239 15.184H48.3719C47.8439 16.204 47.0519 16.712 45.9999 16.712C45.2679 16.712 44.7279 16.472 44.3799 15.992C44.0319 15.512 43.8599 14.764 43.8599 13.744V5.51196H46.3399V13.604C46.3399 14.096 46.3919 14.448 46.4999 14.656C46.6079 14.864 46.7879 14.972 47.0399 14.972C47.2559 14.972 47.4639 14.908 47.6599 14.776C47.8559 14.644 48.0039 14.476 48.0999 14.272V5.51196H50.5799Z" fill="#282828"/>
<path d="M63.3079 5.51196V16.532H61.3679L61.1519 15.184H61.0999C60.5719 16.204 59.7799 16.712 58.7279 16.712C57.9959 16.712 57.4559 16.472 57.1079 15.992C56.7599 15.512 56.5879 14.764 56.5879 13.744V5.51196H59.0679V13.604C59.0679 14.096 59.1199 14.448 59.2279 14.656C59.3359 14.864 59.5159 14.972 59.7679 14.972C59.9839 14.972 60.1919 14.908 60.3879 14.776C60.5839 14.644 60.7319 14.476 60.8279 14.272V5.51196H63.3079Z" fill="#282828"/>
<path d="M57.3238 3.44375H54.8598V16.5318H52.4318V3.44375H49.9678V1.44775H57.3198V3.44375H57.3238Z" fill="#282828"/>
<path d="M71.5197 7.27585C71.3677 6.57985 71.1277 6.07585 70.7917 5.76385C70.4557 5.45185 69.9957 5.29585 69.4077 5.29585C68.9517 5.29585 68.5277 5.42385 68.1317 5.68385C67.7357 5.93985 67.4317 6.27985 67.2157 6.69985H67.1957V0.891846H64.8037V16.5358H66.8517L67.1037 15.4918H67.1557C67.3477 15.8638 67.6357 16.1558 68.0197 16.3718C68.4037 16.5878 68.8277 16.6958 69.2957 16.6958C70.1357 16.6958 70.7517 16.3078 71.1477 15.5358C71.5437 14.7638 71.7397 13.5558 71.7397 11.9118V10.1678C71.7437 8.93585 71.6677 7.97185 71.5197 7.27585ZM69.2437 11.7718C69.2437 12.5758 69.2117 13.2038 69.1437 13.6598C69.0797 14.1158 68.9677 14.4398 68.8117 14.6318C68.6557 14.8238 68.4477 14.9198 68.1837 14.9198C67.9797 14.9198 67.7917 14.8718 67.6157 14.7758C67.4437 14.6798 67.2997 14.5358 67.1917 14.3438V8.08385C67.2757 7.78385 67.4197 7.53985 67.6237 7.34785C67.8277 7.15585 68.0477 7.05985 68.2877 7.05985C68.5397 7.05985 68.7357 7.15985 68.8717 7.35585C69.0077 7.55185 69.1037 7.88785 69.1597 8.35185C69.2117 8.81985 69.2397 9.48385 69.2397 10.3478V11.7718H69.2437Z" fill="#282828"/>
</svg>
